HIERARCHY
ROOT hips
{
  OFFSET 0 10.6860622 2.3727825e-15
  CHANNELS 6 Xposition Yposition Zposition Yrotation Xrotation Zrotation
  JOINT leftUpperLeg
  {
    OFFSET 0.6642549969 -0.9402397400000004 0
    CHANNELS 3 Yrotation Xrotation Zrotation
    JOINT leftLowerLeg
    {
      OFFSET 0 -3.997221335632195 0
      CHANNELS 3 Yrotation Xrotation Zrotation
      JOINT leftFoot
      {
        OFFSET -0.13777839790000004 -4.6145792000000005 -0.22186036399999998
        CHANNELS 3 Yrotation Xrotation Zrotation
        JOINT leftToes
        {
          OFFSET -0.03777410834999995 -0.9130806927000008 0.85230013
          CHANNELS 3 Yrotation Xrotation Zrotation
          End Site
          {
            OFFSET -0.03777410834999995 -0.9130806927000008 0.85230013
          }
        }
      }
    }
  }
  JOINT rightUpperLeg
  {
    OFFSET -0.6642778626 -0.9402397400000004 0
    CHANNELS 3 Yrotation Xrotation Zrotation
    JOINT rightLowerLeg
    {
      OFFSET 0 -3.997221452859387 0
      CHANNELS 3 Yrotation Xrotation Zrotation
      JOINT rightFoot
      {
        OFFSET 0.1377926176 -4.6145792000000005 -0.22185782299999995
        CHANNELS 3 Yrotation Xrotation Zrotation
        JOINT rightToes
        {
          OFFSET 0.037780746850000047 -0.9130806927000008 0.85230167
          CHANNELS 3 Yrotation Xrotation Zrotation
          End Site
          {
            OFFSET 0.037780746850000047 -0.9130806927000008 0.85230167
          }
        }
      }
    }
  }
  JOINT spine
  {
    OFFSET 0 0.13988381660000015 0
    CHANNELS 3 Yrotation Xrotation Zrotation
    JOINT chest
    {
      OFFSET 0 0.6191039003973773 0
      CHANNELS 3 Yrotation Xrotation Zrotation
      JOINT upperChest
      {
        OFFSET 0 0.9855186130586943 0
        CHANNELS 3 Yrotation Xrotation Zrotation
        JOINT leftShoulder
        {
          OFFSET 0.1807663869 1.5087829790000005 0
          CHANNELS 3 Yrotation Xrotation Zrotation
          JOINT leftUpperArm
          {
            OFFSET 0.5985063006419806 0 0
            CHANNELS 3 Yrotation Xrotation Zrotation
            JOINT leftLowerArm
            {
              OFFSET 2.2993332369501065 0 0
              CHANNELS 3 Yrotation Xrotation Zrotation
              JOINT leftHand
              {
                OFFSET 2.395047042602395 0 0
                CHANNELS 3 Yrotation Xrotation Zrotation
                JOINT leftIndexProximal
                {
                  OFFSET 0.5766295810000004 0.04556643899499946 0.17265095988184
                  CHANNELS 3 Yrotation Xrotation Zrotation
                  JOINT leftIndexIntermediate
                  {
                    OFFSET 0.2957229000000008 -0.019352197700001517 -0.007932640616999987
                    CHANNELS 3 Yrotation Xrotation Zrotation
                    JOINT leftIndexDistal
                    {
                      OFFSET 0.19008243099999922 -0.012484908149998475 -0.002786250786000012
                      CHANNELS 3 Yrotation Xrotation Zrotation
                      End Site
                      {
                        OFFSET 0.19008243099999922 -0.012484908149998475 -0.002786250786000012
                      }
                    }
                  }
                }
                JOINT leftMiddleProximal
                {
                  OFFSET 0.5834975091000001 0.0524350405149987 0.02204081888183999
                  CHANNELS 3 Yrotation Xrotation Zrotation
                  JOINT leftMiddleIntermediate
                  {
                    OFFSET 0.33880573540000003 -0.019871473270000717 -0.00000971183179999946
                    CHANNELS 3 Yrotation Xrotation Zrotation
                    JOINT leftMiddleDistal
                    {
                      OFFSET 0.20676022730000088 -0.012221336379999448 0.0001471936708000235
                      CHANNELS 3 Yrotation Xrotation Zrotation
                      End Site
                      {
                        OFFSET 0.20676022730000088 -0.012221336379999448 0.0001471936708000235
                      }
                    }
                  }
                }
                JOINT leftLittleProximal
                {
                  OFFSET 0.5344154683999995 -0.012880921405001189 -0.24414037221816004
                  CHANNELS 3 Yrotation Xrotation Zrotation
                  JOINT leftLittleIntermediate
                  {
                    OFFSET 0.21758961730000093 -0.011650919939999227 0.011893592810000034
                    CHANNELS 3 Yrotation Xrotation Zrotation
                    JOINT leftLittleDistal
                    {
                      OFFSET 0.1475273964999999 -0.008152365682999818 0.006001092492999946
                      CHANNELS 3 Yrotation Xrotation Zrotation
                      End Site
                      {
                        OFFSET 0.1475273964999999 -0.008152365682999818 0.006001092492999946
                      }
                    }
                  }
                }
                JOINT leftRingProximal
                {
                  OFFSET 0.5799399463000003 0.026911854694997794 -0.12150566991816003
                  CHANNELS 3 Yrotation Xrotation Zrotation
                  JOINT leftRingIntermediate
                  {
                    OFFSET 0.26167887460000006 -0.013480186499999602 0.010996293000000053
                    CHANNELS 3 Yrotation Xrotation Zrotation
                    JOINT leftRingDistal
                    {
                      OFFSET 0.17667108799999987 -0.008990287899999228 0.0055541023999999065
                      CHANNELS 3 Yrotation Xrotation Zrotation
                      End Site
                      {
                        OFFSET 0.17667108799999987 -0.008990287899999228 0.0055541023999999065
                      }
                    }
                  }
                }
                JOINT leftThumbProximal
                {
                  OFFSET 0.11018806699999972 -0.09448718900500053 0.17047963138184
                  CHANNELS 3 Yrotation Xrotation Zrotation
                  JOINT leftThumbIntermediate
                  {
                    OFFSET 0.31062601459999983 -0.08126270900000132 0.15443142000000007
                    CHANNELS 3 Yrotation Xrotation Zrotation
                    JOINT leftThumbDistal
                    {
                      OFFSET 0.21627175790000086 -0.08833193599999878 0.018771167799999988
                      CHANNELS 3 Yrotation Xrotation Zrotation
                      End Site
                      {
                        OFFSET 0.21627175790000086 -0.08833193599999878 0.018771167799999988
                      }
                    }
                  }
                }
              }
            }
          }
        }
        JOINT neck
        {
          OFFSET 0 1.5463305265074576 0
          CHANNELS 3 Yrotation Xrotation Zrotation
          JOINT head
          {
            OFFSET 0 0.8456443600000344 0
            CHANNELS 3 Yrotation Xrotation Zrotation
            JOINT leftEye
            {
              OFFSET 0.30408573140000006 0.5104519199999995 0.1276382305
              CHANNELS 3 Yrotation Xrotation Zrotation
              End Site
              {
                OFFSET 0.30408573140000006 0.5104519199999995 0.1276382305
              }
            }
            JOINT rightEye
            {
              OFFSET -0.30409491089999996 0.5104519199999995 0.1276379445
              CHANNELS 3 Yrotation Xrotation Zrotation
              End Site
              {
                OFFSET -0.30409491089999996 0.5104519199999995 0.1276379445
              }
            }
            JOINT jaw
            {
              OFFSET -3.155239131000001e-7 -0.11984121820000082 0.60178107
              CHANNELS 3 Yrotation Xrotation Zrotation
              End Site
              {
                OFFSET -3.155239131000001e-7 -0.11984121820000082 0.60178107
              }
            }
          }
        }
        JOINT rightShoulder
        {
          OFFSET -0.1807303465 1.5087829790000005 0
          CHANNELS 3 Yrotation Xrotation Zrotation
          JOINT rightUpperArm
          {
            OFFSET -0.5985063796536958 0 0
            CHANNELS 3 Yrotation Xrotation Zrotation
            JOINT rightLowerArm
            {
              OFFSET -2.2993322059002854 0 0
              CHANNELS 3 Yrotation Xrotation Zrotation
              JOINT rightHand
              {
                OFFSET -2.395045314457259 0 0
                CHANNELS 3 Yrotation Xrotation Zrotation
                JOINT rightIndexProximal
                {
                  OFFSET -0.5764487688300002 0.0441371204405987 0.17361932004999997
                  CHANNELS 3 Yrotation Xrotation Zrotation
                  JOINT rightIndexIntermediate
                  {
                    OFFSET -0.29573011380000047 -0.01934826376999843 -0.007698921482999974
                    CHANNELS 3 Yrotation Xrotation Zrotation
                    JOINT rightIndexDistal
                    {
                      OFFSET -0.19008373999999884 -0.012503266380000655 -0.0026365778999999897
                      CHANNELS 3 Yrotation Xrotation Zrotation
                      End Site
                      {
                        OFFSET -0.19008373999999884 -0.012503266380000655 -0.0026365778999999897
                      }
                    }
                  }
                }
                JOINT rightMiddleProximal
                {
                  OFFSET -0.5834852037300005 0.05211639405060153 0.02307162440000001
                  CHANNELS 3 Yrotation Xrotation Zrotation
                  JOINT rightMiddleIntermediate
                  {
                    OFFSET -0.33880114510000003 -0.019952774050000954 0.0002455003561999819
                    CHANNELS 3 Yrotation Xrotation Zrotation
                    JOINT rightMiddleDistal
                    {
                      OFFSET -0.20675694929999955 -0.012273788999999091 0.00030209124000002766
                      CHANNELS 3 Yrotation Xrotation Zrotation
                      End Site
                      {
                        OFFSET -0.20675694929999955 -0.012273788999999091 0.00030209124000002766
                      }
                    }
                  }
                }
                JOINT rightLittleProximal
                {
                  OFFSET -0.5346811737299992 -0.011214256288399227 -0.24363941305000003
                  CHANNELS 3 Yrotation Xrotation Zrotation
                  JOINT rightLittleIntermediate
                  {
                    OFFSET -0.21757715980000092 -0.011771559690000988 0.01201554387
                    CHANNELS 3 Yrotation Xrotation Zrotation
                    JOINT rightLittleDistal
                    {
                      OFFSET -0.1475201849000004 -0.00822055339600003 0.006082065407000015
                      CHANNELS 3 Yrotation Xrotation Zrotation
                      End Site
                      {
                        OFFSET -0.1475201849000004 -0.00822055339600003 0.006082065407000015
                      }
                    }
                  }
                }
                JOINT rightRingProximal
                {
                  OFFSET -0.5800810755299999 0.027657985680600072 -0.12066365025000003
                  CHANNELS 3 Yrotation Xrotation Zrotation
                  JOINT rightRingIntermediate
                  {
                    OFFSET -0.26166445029999974 -0.013623118409999302 0.011164098990000045
                    CHANNELS 3 Yrotation Xrotation Zrotation
                    JOINT rightRingDistal
                    {
                      OFFSET -0.17666387530000027 -0.009072900100000503 0.005668185599999959
                      CHANNELS 3 Yrotation Xrotation Zrotation
                      End Site
                      {
                        OFFSET -0.17666387530000027 -0.009072900100000503 0.005668185599999959
                      }
                    }
                  }
                }
                JOINT rightThumbProximal
                {
                  OFFSET -0.10997596379000074 -0.09577489355940072 0.16989765924999997
                  CHANNELS 3 Yrotation Xrotation Zrotation
                  JOINT rightThumbIntermediate
                  {
                    OFFSET -0.31036620999999986 -0.08229339117999834 0.15440884469999996
                    CHANNELS 3 Yrotation Xrotation Zrotation
                    JOINT rightThumbDistal
                    {
                      OFFSET -0.21631306399999906 -0.08825326400000111 0.018656797720000014
                      CHANNELS 3 Yrotation Xrotation Zrotation
                      End Site
                      {
                        OFFSET -0.21631306399999906 -0.08825326400000111 0.018656797720000014
                      }
                    }
                  }
                }
              }
            }
          }
        }
      }
    }
  }
}
MOTION
Frames: 9
Frame Time: 0.03333333333333333
2.1468555533869287 -11.147055686473893 1.7804109968200603 180 -64.99563263813488 180 -25.68967735447891 -26.487352130434697 49.13369981815943 173.11913332902745 49.57822881845005 170.992829312191 -0.003501796408491745 2.9991939409072557 -1.0023681868484131 0 0 0 23.489644726196723 -30.493477261271646 -56.49879781703236 -172.01414463991674 53.70332359157333 -170.1257985852199 0 20.996786438572162 0 0 0 0 0 79.38824229359064 0 0 23.081294275643288 0 0 0 0 0 1.5275236235667615 0 1.2112896090116363 4.848100810241368 -75.94867920802388 -81.00327312566755 0 0 0 0 24.997550564572098 0 0 0 0 0 0 0 0 0 0 0 0 0 0 0 0 0 0 0 0 0 0 0 0 0 0 0 0 0 0 0 0 0 0 0 0 0 0 0 0 0 0 0 0 0 0 32.52667392937385 0 0 -66.02381917419001 0 0 0 0 0 0 0 0 0 0 17.871103961369165 2.2158808730332513 7.347198186935803 55.14474473235272 -32.90774036165289 39.12639638805728 6.086433613006504 0.9943330344905733 4.997732603022402 -15.415342218457523 2.7713388384824422 30.712610073939654 0 0 0 0 0 0 0 0 0 0 0 0 0 0 0 0 0 0 0 0 0 0 0 0 0 0 0 0 0 0 0 0 0 0 0 0 0 0 0 0 0 0 0 0 0
2.1468555533869287 -11.147055686473893 1.8537000691687968 180 -64.99563263813488 180 -25.542166659390382 -26.878126978368577 49.867742779374815 173.46082975229132 48.1390549505865 171.2501779254827 -0.003501796408491745 2.9991939409072557 -1.0023681868484131 0 0 0 23.409990261144593 -31.554238607416035 -57.64250786663445 -172.32244144749248 52.62777550569804 -170.37256087347 0 20.996786438572162 0 0 0 0 0 79.38824229359064 0 0 23.081294275643288 0 0 0 0 0 1.5275236235667615 0 1.2112896090116363 4.848100810241368 -75.94867920802388 -81.00327312566755 0 0 0 0 24.997550564572098 0 0 0 0 0 0 0 0 0 0 0 0 0 0 0 0 0 0 0 0 0 0 0 0 0 0 0 0 0 0 0 0 0 0 0 0 0 0 0 0 0 0 0 0 0 0 32.52667392937385 0 0 -65.30638419238284 0 0 0 0 0 0 0 0 0 0 17.92990345888053 2.261308980753844 7.773158806686552 54.7693010484691 -32.6490888683504 39.56557895758115 6.086433613006504 0.9943330344905733 4.997732603022402 -15.409232784955812 4.984123288739062 32.43374433771238 0 0 0 0 0 0 0 0 0 0 0 0 0 0 0 0 0 0 0 0 0 0 0 0 0 0 0 0 0 0 0 0 0 0 0 0 0 0 0 0 0 0 0 0 0
2.1468555533869287 -11.147055686473893 1.9269888731252618 180 -64.99563263813488 180 -25.39981696285164 -27.270487931142068 50.60308865652021 173.78372259715206 46.69965265410777 171.48795019455517 -0.003501796408491745 2.9991939409072557 -1.0023681868484131 0 0 0 23.3545801564405 -32.61554005686251 -58.797127607197275 -172.61586062459318 51.55176706085344 -170.60407218717904 0 20.996786438572162 0 0 0 0 0 79.38824229359064 0 0 23.081294275643288 0 0 0 0 0 1.5275236235667615 0 1.2112896090116363 4.848100810241368 -75.94867920802388 -81.00327312566755 0 0 0 0 24.997550564572098 0 0 0 0 0 0 0 0 0 0 0 0 0 0 0 0 0 0 0 0 0 0 0 0 0 0 0 0 0 0 0 0 0 0 0 0 0 0 0 0 0 0 0 0 0 0 32.52667392937385 0 0 -64.58796976625595 0 0 0 0 0 0 0 0 0 0 17.989036115627965 2.3062969655524554 8.199158638801174 54.39735533600306 -32.388077360575274 40.00143727515123 6.086433613006504 0.9943330344905733 4.997732603022402 -15.336315149221088 7.191757700522848 34.159111759740476 0 0 0 0 0 0 0 0 0 0 0 0 0 0 0 0 0 0 0 0 0 0 0 0 0 0 0 0 0 0 0 0 0 0 0 0 0 0 0 0 0 0 0 0 0
2.1468555533869287 -11.147055686473893 2.000277677081727 180 -64.99563263813488 180 -25.262683304261373 -27.664323708215196 51.33971782346524 174.08960415896362 45.26052037657541 171.70792678661797 -0.003501796408491745 2.9991939409072557 -1.0023681868484131 0 0 0 23.324210597360015 -33.676536245842904 -59.96342473868592 -172.8955885167011 50.47555968779316 -170.82151291248644 0 20.996786438572162 0 0 0 0 0 79.38824229359064 0 0 23.081294275643288 0 0 0 0 0 1.5275236235667615 0 1.2112896090116363 4.848100810241368 -75.94867920802388 -81.00327312566755 0 0 0 0 24.997550564572098 0 0 0 0 0 0 0 0 0 0 0 0 0 0 0 0 0 0 0 0 0 0 0 0 0 0 0 0 0 0 0 0 0 0 0 0 0 0 0 0 0 0 0 0 0 0 32.52667392937385 0 0 -63.86866714411063 0 0 0 0 0 0 0 0 0 0 18.04850533446159 2.3508416094743105 8.62519335408812 54.02885197642546 -32.12470881987287 40.434002124842046 6.086433613006504 0.9943330344905733 4.997732603022402 -15.196191029532924 9.389638110781714 35.89184708369859 0 0 0 0 0 0 0 0 0 0 0 0 0 0 0 0 0 0 0 0 0 0 0 0 0 0 0 0 0 0 0 0 0 0 0 0 0 0 0 0 0 0 0 0 0
2.1468555533869287 -11.147055686473893 2.0735667494304635 180 -64.99563263813488 180 -25.13086527881247 -28.059527661106628 52.07765956655397 174.38003075305738 43.822254438224654 171.91165582877375 -0.003501796408491745 2.9991939409072557 -1.0023681868484131 0 0 0 23.31973753758685 -34.73641049381291 -61.14223649808143 -173.1626930736508 49.39939270493349 -171.02594841104758 0 20.996786438572162 0 0 0 0 0 79.38824229359064 0 0 23.081294275643288 0 0 0 0 0 1.5275236235667615 0 1.2112896090116363 4.848100810241368 -75.94867920802388 -81.00327312566755 0 0 0 0 24.997550564572098 0 0 0 0 0 0 0 0 0 0 0 0 0 0 0 0 0 0 0 0 0 0 0 0 0 0 0 0 0 0 0 0 0 0 0 0 0 0 0 0 0 0 0 0 0 0 32.52667392937385 0 0 -63.1484792558081 0 0 0 0 0 0 0 0 0 0 18.108293957657384 2.394937983909263 9.051242112666781 53.66379887001253 -31.85902627488589 40.86327034226999 6.086433613006504 0.9943330344905733 4.997732603022402 -14.988318266339247 11.573194361853286 37.63507341888274 0 0 0 0 0 0 0 0 0 0 0 0 0 0 0 0 0 0 0 0 0 0 0 0 0 0 0 0 0 0 0 0 0 0 0 0 0 0 0 0 0 0 0 0 0
2.1468555533869287 -11.147055686473893 2.1468555533869287 180 -64.99563263813488 180 -25.004420106053434 -28.455970601789755 52.81689284683213 174.65639564496465 42.385379470405205 172.10051698358626 -0.003501796408491745 2.9991939409072557 -1.0023681868484131 0 0 0 23.34202963467065 -35.794310522264276 -62.33439603574794 -173.41813124029784 48.32352261224107 -171.21833230964097 0 20.996786438572162 0 0 0 0 0 79.38824229359064 0 0 23.081294275643288 0 0 0 0 0 1.5275236235667615 0 1.2112896090116363 4.848100810241368 -75.94867920802388 -81.00327312566755 0 0 0 0 24.997550564572098 0 0 0 0 0 0 0 0 0 0 0 0 0 0 0 0 0 0 0 0 0 0 0 0 0 0 0 0 0 0 0 0 0 0 0 0 0 0 0 0 0 0 0 0 0 0 32.52667392937385 0 0 -62.42750117535266 0 0 0 0 0 0 0 0 0 0 18.168403253195194 2.4385839357223555 9.477297252938165 53.30220516764479 -31.59109216894932 41.289242723824 6.086433613006504 0.9943330344905733 4.997732603022402 -14.712058906009275 13.737927559783653 39.39194205752698 0 0 0 0 0 0 0 0 0 0 0 0 0 0 0 0 0 0 0 0 0 0 0 0 0 0 0 0 0 0 0 0 0 0 0 0 0 0 0 0 0 0 0 0 0
2.1468555533869287 -11.147055686473893 2.106546791728554 180 -64.99563263813488 180 -25.07329649860676 -28.237779683754578 52.410151400363574 174.50605823412454 43.17545334003419 171.9984072746993 -0.003501796408491745 2.9991939409072557 -1.0023681868484131 0 0 0 23.326406423293502 -35.212770951629295 -61.677018421758405 -173.2790282630951 48.91520404383956 -171.1139576650134 0 20.996786438572162 0 0 0 0 0 79.38824229359064 0 0 23.081294275643288 0 0 0 0 0 1.5275236235667615 0 1.2112896090116363 4.848100810241368 -75.94867920802388 -81.00327312566755 0 0 0 0 24.997550564572098 0 0 0 0 0 0 0 0 0 0 0 0 0 0 0 0 0 0 0 0 0 0 0 0 0 0 0 0 0 0 0 0 0 0 0 0 0 0 0 0 0 0 0 0 0 0 32.52667392937385 0 0 -61.70577239562232 0 0 0 0 0 0 0 0 0 0 18.135309637142765 2.414635240256699 9.2429706758161 53.50066263903029 -31.738740924758858 41.05536185606091 6.086433613006504 0.9943330344905733 4.997732603022402 -14.872507842462952 12.549915663945619 38.42377172196402 0 0 0 0 0 0 0 0 0 0 0 0 0 0 0 0 0 0 0 0 0 0 0 0 0 0 0 0 0 0 0 0 0 0 0 0 0 0 0 0 0 0 0 0 0
2.1468555533869287 -11.147055686473893 2.0662377616779084 180 -64.99563263813488 180 -25.143806548459825 -28.019948982758525 52.003796583890804 174.35164039298755 43.96603856416233 171.89197175858675 -0.003501796408491745 2.9991939409072557 -1.0023681868484131 0 0 0 23.319001180082513 -34.63050334024494 -61.0237805763359 -173.13652173248946 49.50700406881865 -171.00606102339765 0 20.996786438572162 0 0 0 0 0 79.38824229359064 0 0 23.081294275643288 0 0 0 0 0 1.5275236235667615 0 1.2112896090116363 4.848100810241368 -75.94867920802388 -81.00327312566755 0 0 0 0 24.997550564572098 0 0 0 0 0 0 0 0 0 0 0 0 0 0 0 0 0 0 0 0 0 0 0 0 0 0 0 0 0 0 0 0 0 0 0 0 0 0 0 0 0 0 0 0 0 0 32.52667392937385 0 0 -60.983346639017334 0 0 0 0 0 0 0 0 0 0 18.10229598732889 2.390549389600958 9.008637172721176 53.70016036552232 -31.885708384136908 40.82048714952769 6.086433613006504 0.9943330344905733 4.997732603022402 -15.01217129607302 11.3556068217098 37.460176890488626 0 0 0 0 0 0 0 0 0 0 0 0 0 0 0 0 0 0 0 0 0 0 0 0 0 0 0 0 0 0 0 0 0 0 0 0 0 0 0 0 0 0 0 0 0
2.1468555533869287 -11.147055686473893 2.025929000019534 180 -64.99563263813488 180 -25.21594245675161 -27.802490543509336 51.597849332205705 174.19293328343124 44.75701589501308 171.78100347991074 -0.003501796408491745 2.9991939409072557 -1.0023681868484131 0 0 0 23.319660479347444 -34.04766959873185 -60.37454605951249 -172.99046154045357 50.09887419638137 -170.89449475831907 0 20.996786438572162 0 0 0 0 0 79.38824229359064 0 0 23.081294275643288 0 0 0 0 0 1.5275236235667615 0 1.2112896090116363 4.848100810241368 -75.94867920802388 -81.00327312566755 0 0 0 0 24.997550564572098 0 0 0 0 0 0 0 0 0 0 0 0 0 0 0 0 0 0 0 0 0 0 0 0 0 0 0 0 0 0 0 0 0 0 0 0 0 0 0 0 0 0 0 0 0 0 32.52667392937385 0 0 -60.26028343543382 0 0 0 0 0 0 0 0 0 0 18.06939414604731 2.3663268140070826 8.774310475823766 53.900684880310635 -32.031972114411666 40.58462310281103 6.086433613006504 0.9943330344905733 4.997732603022402 -15.131170294447758 10.155740796024373 36.50061337728853 0 0 0 0 0 0 0 0 0 0 0 0 0 0 0 0 0 0 0 0 0 0 0 0 0 0 0 0 0 0 0 0 0 0 0 0 0 0 0 0 0 0 0 0 0
